<svg width="16" height="16" fill="none" xmlns="http://www.w3.org/2000/svg"><path d="M1.333 6c0-.62 0-.93.068-1.184a2 2 0 011.415-1.414c.254-.069.564-.069 1.184-.069h8c.62 0 .93 0 1.184.069A2 2 0 0114.6 4.816c.068.254.068.564.068 1.184 0 .155 0 .233-.017.296a.5.5 0 01-.354.354c-.063.017-.141.017-.296.017H2c-.155 0-.233 0-.296-.017a.5.5 0 01-.354-.354c-.017-.063-.017-.141-.017-.296zm0 4.667c0 1.885 0 2.828.586 3.414.586.586 1.529.586 3.414.586h5.334c1.885 0 2.828 0 3.414-.586.586-.586.586-1.529.586-3.414V9c0-.471 0-.707-.147-.854C14.374 8 14.138 8 13.667 8H2.333c-.471 0-.707 0-.853.146-.147.147-.147.383-.147.854v1.667z" fill="#fff"/><path d="M4.667 2v2m6.666-2v2" stroke="#fff" stroke-width="2" stroke-linecap="round"/></svg>