<svg width="16" height="16" viewBox="0 0 16 16" fill="none" xmlns="http://www.w3.org/2000/svg">
<path d="M5.00005 3.99999C4.80227 3.99999 4.60893 4.05864 4.44448 4.16852C4.28003 4.2784 4.15186 4.43458 4.07617 4.61731C4.00048 4.80003 3.98068 5.0011 4.01927 5.19508C4.05785 5.38906 4.15309 5.56725 4.29294 5.7071C4.4328 5.84695 4.61098 5.94219 4.80496 5.98078C4.99894 6.01936 5.20001 5.99956 5.38274 5.92387C5.56546 5.84818 5.72164 5.72001 5.83152 5.55556C5.9414 5.39111 6.00005 5.19777 6.00005 4.99999C6.00005 4.73477 5.8947 4.48042 5.70716 4.29288C5.51962 4.10535 5.26527 3.99999 5.00005 3.99999V3.99999ZM14.0801 7.13999L8.47339 1.52666C8.41109 1.46487 8.33721 1.41599 8.25599 1.38281C8.17476 1.34963 8.08779 1.33282 8.00005 1.33332H2.00005C1.82324 1.33332 1.65367 1.40356 1.52865 1.52859C1.40362 1.65361 1.33339 1.82318 1.33339 1.99999V7.99999C1.33288 8.08773 1.34969 8.1747 1.38287 8.25593C1.41605 8.33715 1.46493 8.41103 1.52672 8.47332L7.14005 14.08C7.51505 14.4545 8.02338 14.6649 8.55339 14.6649C9.08339 14.6649 9.59172 14.4545 9.96672 14.08L14.0801 9.99999C14.4546 9.62499 14.665 9.11666 14.665 8.58666C14.665 8.05666 14.4546 7.54833 14.0801 7.17332V7.13999ZM13.1401 9.01999L9.02005 13.1333C8.89514 13.2575 8.72618 13.3272 8.55005 13.3272C8.37393 13.3272 8.20496 13.2575 8.08005 13.1333L2.66672 7.72666V2.66666H7.72672L13.1401 8.07999C13.2018 8.14228 13.2507 8.21616 13.2839 8.29739C13.3171 8.37861 13.3339 8.46559 13.3334 8.55332C13.3326 8.72822 13.2632 8.89582 13.1401 9.01999V9.01999Z" fill="#205DB2"/>
</svg>
