<svg width="7" height="12" fill="none" xmlns="http://www.w3.org/2000/svg"><path d="M3.542 10.48V8.138c0-.224 0-.336-.067-.408a.245.245 0 00-.013-.013c-.072-.067-.184-.067-.408-.067-1.337 0-2.006 0-2.305-.421a1 1 0 01-.052-.082c-.257-.448.024-1.055.586-2.268L2.588 2.06c.374-.808.561-1.212.757-1.17.197.044.197.49.197 1.38v2.342c0 .224 0 .336.066.408l.014.013c.072.067.184.067.408.067 1.336 0 2.005 0 2.304.421.019.027.036.054.052.082.257.448-.024 1.055-.586 2.268L4.495 10.69c-.374.808-.56 1.212-.757 1.17-.196-.044-.196-.49-.196-1.38z" fill="#E84748"/></svg>