<svg width="14" height="12" viewBox="0 0 14 12" fill="none" xmlns="http://www.w3.org/2000/svg">
<path d="M8.44684 1.00776C8.54037 1.00261 8.63456 1 8.72932 1C11.6402 1 14 3.46243 14 6.5C14 9.53757 11.6402 12 8.72932 12C7.73025 12 6.7961 11.7099 6 11.2061C8.77957 11.0529 10.9882 8.65254 10.9882 5.71386C10.9882 3.71884 9.97027 1.97191 8.44684 1.00776Z" fill="white"/>
<path d="M2.975 5.42499L2.975 5.425C3.01581 5.54744 3.03622 5.60866 3.0509 5.63866C3.23375 6.01226 3.76625 6.01226 3.9491 5.63866C3.96378 5.60866 3.98419 5.54744 4.025 5.425C4.05796 5.32613 4.07443 5.2767 4.0924 5.23055C4.29564 4.70851 4.70851 4.29564 5.23055 4.0924C5.2767 4.07443 5.32613 4.05796 5.425 4.025C5.54744 3.98419 5.60866 3.96378 5.63866 3.9491C6.01226 3.76625 6.01226 3.23375 5.63866 3.0509C5.60866 3.03622 5.54744 3.01581 5.425 2.975L5.42498 2.97499C5.32613 2.94204 5.2767 2.92557 5.23055 2.9076C4.70851 2.70436 4.29564 2.29149 4.0924 1.76945C4.07443 1.7233 4.05796 1.67387 4.025 1.575C3.98419 1.45256 3.96378 1.39134 3.9491 1.36134C3.76625 0.987738 3.23375 0.987738 3.0509 1.36134C3.03622 1.39134 3.01581 1.45256 2.975 1.575L2.97499 1.57502C2.94204 1.67388 2.92556 1.72331 2.9076 1.76945C2.70436 2.29149 2.29149 2.70436 1.76945 2.9076C1.7233 2.92557 1.67387 2.94204 1.57501 2.975L1.575 2.975C1.45256 3.01581 1.39134 3.03622 1.36134 3.0509C0.987738 3.23375 0.987738 3.76625 1.36134 3.9491C1.39134 3.96378 1.45256 3.98419 1.575 4.025C1.67387 4.05796 1.7233 4.07443 1.76945 4.0924C2.29149 4.29564 2.70436 4.70851 2.9076 5.23055C2.92557 5.2767 2.94204 5.32613 2.975 5.42499Z" fill="white"/>
</svg>
