<svg width="14" height="11" fill="none" xmlns="http://www.w3.org/2000/svg"><path d="M12.35 1.74A5.92 5.92 0 0014 1.307a5.472 5.472 0 01-1.436 1.434c.009.117.009.234.009.36 0 3.67-2.891 7.899-8.17 7.899A8.351 8.351 0 010 9.756c.224.027.457.036.69.036a5.853 5.853 0 003.563-1.19c-1.25-.027-2.313-.83-2.677-1.93.177.036.355.045.541.045.261 0 .513-.036.756-.099C1.558 6.366.569 5.248.569 3.904v-.036c.392.207.83.334 1.306.343A2.735 2.735 0 01.597 1.902c0-.504.14-.982.392-1.397a8.272 8.272 0 005.913 2.903 2.85 2.85 0 01-.075-.63C6.827 1.244 8.115 0 9.7 0c.821 0 1.567.334 2.099.875a5.703 5.703 0 001.819-.677c-.215.65-.672 1.2-1.269 1.542z" fill="#BABABA"/></svg>