<svg width="14" height="10" fill="none" xmlns="http://www.w3.org/2000/svg"><path d="M13.405 1.115c-.38-.675-.792-.8-1.631-.847-.838-.057-2.946-.08-4.772-.08-1.83 0-3.939.023-4.776.08-.837.047-1.25.17-1.634.847C.202 1.79 0 2.952 0 4.997v.007C0 7.041.201 8.212.592 8.88c.384.675.796.798 1.633.855.838.049 2.947.078 4.777.078 1.826 0 3.934-.03 4.773-.078.839-.056 1.251-.179 1.63-.854.396-.668.595-1.839.595-3.876v-.007c0-2.046-.2-3.208-.595-3.883zM5.25 7.625v-5.25L9.625 5 5.25 7.625z" fill="#BABABA"/></svg>