<svg width="20" height="20" viewBox="0 0 20 20" fill="none" xmlns="http://www.w3.org/2000/svg">
<path d="M19.3609 18.2168L14.6009 13.2662C15.8248 11.8113 16.4954 9.98069 16.4954 8.07499C16.4954 3.62251 12.8729 0 8.42037 0C3.96789 0 0.345383 3.62251 0.345383 8.07499C0.345383 12.5275 3.96789 16.15 8.42037 16.15C10.0919 16.15 11.6848 15.6458 13.0466 14.6888L17.8428 19.677C18.0433 19.8852 18.3129 20 18.6019 20C18.8754 20 19.1348 19.8957 19.3318 19.7061C19.7503 19.3034 19.7636 18.6357 19.3609 18.2168ZM8.42037 2.10652C11.7115 2.10652 14.3888 4.78391 14.3888 8.07499C14.3888 11.3661 11.7115 14.0435 8.42037 14.0435C5.12929 14.0435 2.4519 11.3661 2.4519 8.07499C2.4519 4.78391 5.12929 2.10652 8.42037 2.10652Z" fill="white"/>
</svg>
