<svg width="10" height="11" viewBox="0 0 10 11" fill="none" xmlns="http://www.w3.org/2000/svg">
<path fill-rule="evenodd" clip-rule="evenodd" d="M0.405832 6.23817C0.0886812 5.92102 0.0886809 5.40681 0.405832 5.08966L4.4256 1.06989C4.74275 0.752744 5.25695 0.752744 5.5741 1.06989L5.57821 1.07403L9.59389 5.0897C9.91104 5.40686 9.91104 5.92106 9.59389 6.23821C9.27674 6.55536 8.76253 6.55536 8.44538 6.23821L5.84124 3.63407L5.84124 10.02C5.84124 10.4686 5.47765 10.8321 5.02913 10.8321C4.58061 10.8321 4.21701 10.4686 4.21701 10.02L4.21701 3.57549L1.55434 6.23817C1.23719 6.55532 0.722983 6.55532 0.405832 6.23817Z" fill="white"/>
</svg>
