<svg width="8" height="6" viewBox="0 0 8 6" fill="none" xmlns="http://www.w3.org/2000/svg">
<path d="M6.46967 0.46967C6.76256 0.176776 7.23744 0.176776 7.53033 0.469669C7.82322 0.762562 7.82322 1.23744 7.53033 1.53033L6.46967 0.46967ZM4 4L4.53033 4.53033L4 5.06066L3.46967 4.53033L4 4ZM0.46967 1.53033C0.176777 1.23744 0.176777 0.762563 0.46967 0.46967C0.762563 0.176776 1.23744 0.176776 1.53033 0.46967L0.46967 1.53033ZM7.53033 1.53033L4.53033 4.53033L3.46967 3.46967L6.46967 0.46967L7.53033 1.53033ZM3.46967 4.53033L0.46967 1.53033L1.53033 0.46967L4.53033 3.46967L3.46967 4.53033Z" fill="#313131"/>
</svg>
