<svg width="16" height="12" viewBox="0 0 16 12" fill="none" xmlns="http://www.w3.org/2000/svg">
<path fill-rule="evenodd" clip-rule="evenodd" d="M0.689245 4.10588C1.90643 2.38906 4.27012 0 7.99899 0C11.7279 0 14.0916 2.38906 15.3087 4.10588C15.7805 4.77134 16.0164 5.10407 15.9969 5.77319C15.9773 6.44232 15.7086 6.7778 15.1714 7.44875C13.7926 9.17054 11.2486 11.6401 7.99899 11.6401C4.7494 11.6401 2.20541 9.17054 0.82663 7.44875C0.289344 6.7778 0.0207008 6.44232 0.00112599 5.77319C-0.0184488 5.10407 0.217449 4.77134 0.689245 4.10588ZM7.99894 9.14582C9.83571 9.14582 11.3247 7.65683 11.3247 5.82007C11.3247 3.98331 9.83571 2.49432 7.99894 2.49432C6.16218 2.49432 4.6732 3.98331 4.6732 5.82007C4.6732 7.65683 6.16218 9.14582 7.99894 9.14582Z" fill="#BABABA"/>
</svg>
