<svg width="15" height="15" fill="none" xmlns="http://www.w3.org/2000/svg"><path fill-rule="evenodd" clip-rule="evenodd" d="M7.095.807H4.113c-.598 0-1.125.142-1.523.25l-.225.059c-.514.206-.925.411-1.234.822-.411.412-.617.823-.823 1.234C.103 3.584 0 4.201 0 4.92v5.964c0 .599.142 1.126.25 1.523l.058.226c.206.514.412.925.823 1.234.411.308.823.616 1.234.822.411.206 1.028.309 1.748.309h5.964c.598 0 1.126-.143 1.523-.25l.225-.059c.514-.206.926-.411 1.234-.822.309-.412.617-.823.823-1.235.205-.41.308-1.028.308-1.748V4.92c0-.598-.142-1.125-.249-1.522l-.06-.226c-.205-.514-.41-.925-.822-1.234-.411-.41-.822-.616-1.234-.822-.411-.206-1.028-.309-1.748-.309H7.095zm4.73 3.394a.811.811 0 01-.823.822c-.411 0-.822-.411-.822-.822 0-.515.41-.823.822-.823s.823.308.823.823zm-4.73 6.17c-1.337 0-2.365-1.03-2.365-2.366 0-1.337 1.028-2.365 2.365-2.365 1.336 0 2.365 1.028 2.365 2.365 0 1.337-1.029 2.365-2.365 2.365zm0-6.068a3.686 3.686 0 00-3.702 3.702 3.686 3.686 0 003.702 3.702 3.686 3.686 0 003.701-3.702 3.686 3.686 0 00-3.701-3.702z" fill="#BABABA"/></svg>