<svg width="7" height="12" viewBox="0 0 7 12" fill="none" xmlns="http://www.w3.org/2000/svg">
<path d="M3.54167 10.4799V8.13785C3.54167 7.91394 3.54167 7.80199 3.47506 7.7301C3.47074 7.72543 3.46624 7.72093 3.46157 7.71661C3.38967 7.65 3.27772 7.65 3.05382 7.65C1.71691 7.65 1.04845 7.65 0.749493 7.22884C0.730695 7.20236 0.713199 7.17498 0.697066 7.1468C0.44048 6.69856 0.721313 6.09196 1.28298 4.87876L2.58793 2.06006C2.96212 1.25182 3.14922 0.847696 3.34544 0.890915C3.54167 0.934134 3.54167 1.37946 3.54167 2.27012V4.61215C3.54167 4.83605 3.54167 4.94801 3.60827 5.0199C3.6126 5.02457 3.6171 5.02907 3.62176 5.03339C3.69366 5.1 3.80561 5.1 4.02952 5.1C5.36643 5.1 6.03488 5.1 6.33384 5.52116C6.35264 5.54764 6.37013 5.57502 6.38627 5.6032C6.64285 6.05144 6.36202 6.65804 5.80035 7.87124L4.4954 10.6899C4.12121 11.4982 3.93412 11.9023 3.73789 11.8591C3.54167 11.8159 3.54167 11.3705 3.54167 10.4799Z" fill="#E84748"/>
</svg>
