<svg width="28" height="28" fill="none" xmlns="http://www.w3.org/2000/svg"><path d="M2.996 27.003A2.022 2.022 0 01.993 25V11c0-1.092.915-2.003 2.003-2.003h3.005c.74 0 1.39.427 1.738 1.04.673-.416 1.335-.658 1.762-.904 1.005-.582 1.519-2.215 1.757-3.92.117-.85.182-1.67.287-2.354.053-.34.102-.642.242-.975a1.334 1.334 0 011.21-.888c1.485 0 2.702.582 3.477 1.474.778.888 1.141 2.003 1.337 3.107.318 1.806.197 3.337.137 4.43h6.047c1.647 0 3.008 1.352 3.008 2.996 0 .582-.166 1.02-.378 1.7a57.339 57.339 0 01-.813 2.39c-.627 1.76-1.375 3.756-1.867 5.226a4.991 4.991 0 01-.907 1.735 2.735 2.735 0 01-2.037.949H8.998A2.924 2.924 0 018 24.818v.19a2.017 2.017 0 01-1.999 1.999l-3.005-.004zm0-2.003h3.005V11H2.996v14zm6.002-2h12.003c.265 0 .348-.052.522-.256a3.45 3.45 0 00.529-1.066c.51-1.53 1.259-3.523 1.878-5.261.31-.87.59-1.674.783-2.306.196-.627.29-1.194.29-1.11a.98.98 0 00-1.005-.998h-7.086a1 1 0 01-1.005-1.006c0-1.179.257-3.288-.057-5.08-.159-.891-.454-1.643-.88-2.13a2.294 2.294 0 00-1.43-.753c-.101.57-.17 1.546-.298 2.457-.26 1.863-.752 4.221-2.744 5.374-.744.427-1.462.68-1.89.975-.43.295-.604.454-.604 1.16v8.995c0 .575.423 1.006.994 1.006z" fill="#32A071"/></svg>