<svg width="14" height="12" fill="none" xmlns="http://www.w3.org/2000/svg"><path d="M8.447 1.008C8.54 1.003 8.635 1 8.729 1 11.64 1 14 3.462 14 6.5S11.64 12 8.73 12c-1 0-1.934-.29-2.73-.794 2.78-.153 4.988-2.553 4.988-5.492 0-1.995-1.018-3.742-2.541-4.706zM2.975 5.425c.04.122.061.184.076.214a.5.5 0 00.898 0 2.44 2.44 0 00.076-.214c.033-.099.05-.148.067-.194a2 2 0 011.139-1.139c.046-.018.095-.034.194-.067a2.44 2.44 0 00.214-.076.5.5 0 000-.898 2.44 2.44 0 00-.214-.076 6.184 6.184 0 01-.194-.067 2 2 0 01-1.139-1.139c-.018-.046-.034-.095-.067-.194a2.44 2.44 0 00-.076-.214.5.5 0 00-.898 0 2.44 2.44 0 00-.076.214 4.37 4.37 0 01-.067.194 2 2 0 01-1.139 1.139c-.046.018-.095.034-.194.067a2.44 2.44 0 00-.214.076.5.5 0 000 .898c.03.015.092.035.214.076.099.033.148.05.194.067a2 2 0 011.139 1.139c.018.046.034.095.067.194z" fill="#fff"/></svg>