<svg width="20" height="17" fill="none" xmlns="http://www.w3.org/2000/svg"><path d="M.302 7.753c2.046-1.134 4.33-2.08 6.464-3.032 3.671-1.558 7.357-3.09 11.08-4.515.725-.243 2.026-.48 2.154.6-.07 1.529-.357 3.049-.555 4.569-.5 3.342-1.079 6.674-1.643 10.005-.194 1.11-1.576 1.684-2.46.974-2.124-1.444-4.265-2.874-6.362-4.351-.687-.703-.05-1.711.563-2.213 1.75-1.735 3.606-3.21 5.264-5.034.447-1.087-.874-.171-1.31.11-2.396 1.66-4.733 3.423-7.258 4.883-1.29.714-2.794.104-4.084-.295C1 8.972-.695 8.487.302 7.753z" fill="#fff"/></svg>