<svg width="18" height="9" fill="none" xmlns="http://www.w3.org/2000/svg"><path d="M17.182 8.965l-2.404.027s-.514.09-1.202-.324c-.904-.54-1.746-1.944-2.414-1.764-.668.189-.647 1.449-.647 1.449s0 .27-.144.414c-.164.162-.493.198-.493.198H8.81s-2.373.125-4.47-1.782C2.061 5.104.047.973.047.973S-.066.704.057.57C.202.425.582.416.582.416L3.15.398s.246.036.41.144c.155.099.237.27.237.27s.41.918.965 1.754c1.079 1.63 1.572 1.98 1.942 1.81.534-.253.37-2.304.37-2.304s.01-.738-.267-1.071C6.59.74 6.19.668 6.005.65c-.143-.018.093-.315.401-.441C6.868.01 7.69-.007 8.656.002c.75.009.965.045 1.263.108.884.189.586.909.586 2.645 0 .558-.113 1.341.349 1.602.195.108.678.018 1.88-1.773.575-.845.996-1.853.996-1.853s.093-.18.237-.252c.143-.081.349-.054.349-.054l2.712-.018s.811-.09.945.234c.133.342-.308 1.125-1.407 2.42-1.819 2.124-2.014 1.926-.514 3.15 1.438 1.17 1.736 1.746 1.787 1.809.596.873-.657.945-.657.945z" fill="#BABABA"/></svg>