<svg width="200" height="72" fill="none" xmlns="http://www.w3.org/2000/svg"><path d="M189.091 0H10.909C4.884 0 0 4.835 0 10.8v50.4C0 67.165 4.884 72 10.91 72h178.18c6.026 0 10.91-4.835 10.91-10.8V10.8C200 4.835 195.116 0 189.091 0z" fill="#000"/><mask id="a" style="mask-type:alpha" maskUnits="userSpaceOnUse" x="18" y="10" width="43" height="41"><path d="M26.26 15.473l-7.356 20.559c-1.305 3.65.621 7.657 4.31 8.95l28.917 5.575 8.246-23.12c1.305-3.65-.623-7.656-4.31-8.951L35.3 11.205a7.146 7.146 0 00-2.364-.405c-2.916 0-5.648 1.796-6.676 4.672z" fill="#fff"/></mask><g mask="url(#a)"><path fill-rule="evenodd" clip-rule="evenodd" d="M26.26 15.473l-7.356 20.559c-1.305 3.65.621 7.657 4.31 8.95l28.917 5.575 8.246-23.12c1.305-3.65-.623-7.656-4.31-8.951L35.3 11.205a7.146 7.146 0 00-2.364-.405c-2.916 0-5.648 1.796-6.676 4.672z" fill="url(#paint0_linear_1405_217)"/></g><mask id="b" style="mask-type:alpha" maskUnits="userSpaceOnUse" x="16" y="20" width="37" height="36"><path d="M23.405 20.174c-3.888 0-7.041 3.12-7.041 6.972v21.682c0 3.85 3.153 6.971 7.041 6.971h21.902c3.888 0 7.041-3.121 7.041-6.97V27.145c0-3.852-3.153-6.972-7.041-6.972H23.405z" fill="#fff"/></mask><g mask="url(#b)"><path fill-rule="evenodd" clip-rule="evenodd" d="M23.405 20.174c-3.888 0-7.041 3.12-7.041 6.972v21.682c0 3.85 3.153 6.971 7.041 6.971h21.902c3.888 0 7.041-3.121 7.041-6.97V27.145c0-3.852-3.153-6.972-7.041-6.972H23.405z" fill="url(#paint1_linear_1405_217)"/></g><path fill-rule="evenodd" clip-rule="evenodd" d="M25.645 44.577c1.365 1.347 5.003 2.153 8.712 2.168 3.708-.015 7.346-.821 8.71-2.168 3.394-3.34-4.854-16.149-8.706-16.168-3.862.02-12.11 12.827-8.716 16.168zm52.951-30.418h3.47l5.541 15.487H84.88l-1.44-4.06h-6.59l-1.44 4.06h-2.334l5.52-15.487zm4.037 9.18l-2.487-6.977-2.488 6.977h4.975zm8.105 2.333c.16-.735.266-1.689.317-2.862.05-1.174.076-2.632.076-4.374h8.138v11.21h-2.53v-9.18h-3.295a69.875 69.875 0 01-.175 3.931c-.087 1.138-.265 2.099-.534 2.884-.27.785-.655 1.386-1.157 1.803-.502.418-1.174.627-2.018.627a5.137 5.137 0 01-.676-.043v-2.333c.145.029.254.043.327.043.393 0 .709-.14.949-.421.24-.281.433-.71.578-1.285zm14.28.583l5.237-7.82h2.487v11.211h-2.509V21.87l-5.193 7.776h-2.531v-11.21h2.509v7.819zm15.815 3.607c-.917 0-1.738-.133-2.466-.4a5.152 5.152 0 01-1.854-1.144 5.023 5.023 0 01-1.178-1.826c-.277-.72-.415-1.54-.415-2.462 0-.907.138-1.72.415-2.44a5.023 5.023 0 011.178-1.826c.509-.497 1.134-.878 1.876-1.145.742-.266 1.571-.4 2.487-.4.786 0 1.473.087 2.062.26.589.173 1.058.389 1.407.648V21.2a5.782 5.782 0 00-1.472-.67c-.531-.158-1.146-.237-1.844-.237-2.342 0-3.513 1.246-3.513 3.737s1.149 3.737 3.448 3.737c.741 0 1.378-.083 1.909-.249a7.283 7.283 0 001.472-.637v2.074c-.378.245-.85.457-1.418.637-.567.18-1.265.27-2.094.27zm12.207-2.182a4.02 4.02 0 01-.469.778 3.473 3.473 0 01-1.735 1.21c-.392.13-.851.194-1.374.194-.495 0-.953-.068-1.375-.205a3.109 3.109 0 01-1.102-.616 2.9 2.9 0 01-.741-1.026c-.182-.41-.273-.882-.273-1.415 0-1.224.458-2.142 1.374-2.754.917-.612 2.211-.918 3.884-.918h1.724v-.69c0-.735-.189-1.243-.568-1.524-.378-.28-1.003-.42-1.876-.42-.742 0-1.436.104-2.084.312a9.657 9.657 0 00-1.712.724v-2.095c.451-.245 1.047-.475 1.789-.691a8.634 8.634 0 012.422-.324c1.454 0 2.578.298 3.371.896.792.598 1.189 1.552 1.189 2.862v5.854c0 .13.003.277.011.442l.021.508a8.204 8.204 0 00.077.864h-2.335a8.379 8.379 0 01-.12-.842c-.036-.36-.062-.684-.076-.972l-.022-.152zm-2.88.238c.538 0 .985-.112 1.342-.335.356-.223.643-.482.862-.777.218-.296.371-.587.458-.875.087-.288.131-.49.131-.605v-.756h-1.571c-1.004 0-1.738.155-2.204.464-.465.31-.698.746-.698 1.307 0 .49.142.875.425 1.156.284.28.702.421 1.255.421zM83.09 46.476c0 .922-.137 1.742-.414 2.462a5.027 5.027 0 01-1.178 1.826 5.152 5.152 0 01-1.854 1.144c-.728.267-1.55.4-2.466.4-.829 0-1.53-.09-2.105-.27-.575-.18-1.051-.392-1.43-.637v-2.074c.452.26.942.472 1.473.637.531.166 1.168.249 1.91.249 2.021 0 3.163-.943 3.425-2.83h-4.604v-2.03h4.582c-.305-1.743-1.425-2.614-3.36-2.614-.713 0-1.327.08-1.844.238-.516.158-1 .381-1.45.67v-2.074c.349-.26.821-.475 1.418-.648.596-.173 1.287-.26 2.073-.26 1.861 0 3.298.508 4.309 1.523 1.01 1.016 1.516 2.445 1.516 4.288zm7.096-3.564v9.18h-2.532v-9.18H84.23v-2.03h9.447v2.03h-3.49zm9.872 9.396c-.8 0-1.542-.13-2.225-.389a5.029 5.029 0 01-1.778-1.134 5.221 5.221 0 01-1.179-1.825c-.283-.72-.425-1.548-.425-2.484 0-.936.142-1.764.425-2.484a5.221 5.221 0 011.179-1.825 4.906 4.906 0 011.778-1.123 6.386 6.386 0 012.225-.378c.8 0 1.542.126 2.226.378.683.252 1.28.626 1.789 1.123a5.273 5.273 0 011.2 1.825c.291.72.436 1.548.436 2.484 0 .936-.145 1.764-.436 2.484a5.273 5.273 0 01-1.2 1.825 5.144 5.144 0 01-1.789 1.134 6.231 6.231 0 01-2.226.389zm0-2.095c.873 0 1.597-.303 2.171-.907.575-.605.862-1.548.862-2.83 0-1.267-.287-2.207-.862-2.819-.574-.612-1.298-.918-2.171-.918-.858 0-1.574.306-2.149.918-.575.612-.862 1.552-.862 2.819 0 1.282.288 2.225.862 2.83.575.604 1.291.907 2.149.907zm19.44 1.75a13.183 13.183 0 01-.796 1.792 5.294 5.294 0 01-.982 1.307c-.371.353-.8.62-1.287.8-.488.18-1.058.27-1.713.27-.713 0-1.324-.116-1.833-.346v-2.247c.204.159.458.281.764.367.305.087.64.13 1.004.13.494 0 .901-.104 1.221-.313.32-.209.611-.522.873-.94l-4.56-11.901h2.727l3.164 8.704 3.142-8.704h2.356l-4.08 11.08zm16.629-7.993l-3.338 7.042h-1.854l-3.142-7.106v8.186h-2.291v-11.21h3.469l3.098 6.955 3.273-6.955h3.316v11.21h-2.531V43.97zm15.037 7.301c-.16.101-.357.213-.589.335a5.07 5.07 0 01-.83.335c-.32.1-.69.187-1.112.259a8.624 8.624 0 01-1.44.108c-2.08 0-3.633-.511-4.658-1.534-1.026-1.022-1.539-2.455-1.539-4.298 0-.907.139-1.72.415-2.44a5.179 5.179 0 011.156-1.826 5.049 5.049 0 011.768-1.145 6.133 6.133 0 012.247-.4c.843 0 1.603.137 2.28.411a4.021 4.021 0 011.669 1.231c.436.547.738 1.224.905 2.03.168.807.171 1.75.011 2.83h-7.832c.101 1.023.443 1.79 1.025 2.3.582.512 1.491.767 2.727.767.902 0 1.655-.111 2.258-.334a9.99 9.99 0 001.539-.702v2.073zm-4.582-8.618c-.742 0-1.367.223-1.877.67-.509.446-.843 1.108-1.003 1.987h5.323c.03-.908-.174-1.577-.61-2.01-.437-.431-1.048-.647-1.833-.647zm16.709 8.618c-.16.101-.356.213-.589.335a5.056 5.056 0 01-.829.335c-.32.1-.691.187-1.113.259a8.624 8.624 0 01-1.44.108c-2.08 0-3.633-.511-4.658-1.534-1.026-1.022-1.538-2.455-1.538-4.298 0-.907.138-1.72.414-2.44a5.18 5.18 0 011.157-1.826 5.036 5.036 0 011.767-1.145 6.136 6.136 0 012.247-.4c.844 0 1.604.137 2.28.411a4.021 4.021 0 011.669 1.231c.437.547.738 1.224.906 2.03.167.807.171 1.75.011 2.83h-7.833c.102 1.023.443 1.79 1.025 2.3.582.512 1.491.767 2.728.767.901 0 1.654-.111 2.258-.334a10.02 10.02 0 001.538-.702v2.073zm-4.582-8.618c-.742 0-1.367.223-1.876.67-.509.446-.844 1.108-1.004 1.987h5.324c.029-.908-.175-1.577-.611-2.01-.437-.431-1.047-.647-1.833-.647zm11.967.259v9.18h-2.531v-9.18h-3.425v-2.03h9.447v2.03h-3.491z" fill="#fff"/><defs><linearGradient id="paint0_linear_1405_217" x1="28.372" y1="48.699" x2="49.352" y2="13.859" gradientUnits="userSpaceOnUse"><stop stop-color="#F33"/><stop offset="1" stop-color="#FF00E2"/></linearGradient><linearGradient id="paint1_linear_1405_217" x1="26.377" y1="57.538" x2="42.061" y2="18.327" gradientUnits="userSpaceOnUse"><stop stop-color="#C826FF"/><stop offset="1" stop-color="#5426FF"/></linearGradient></defs></svg>