<svg width="200" height="61" viewBox="0 0 200 61" fill="none" xmlns="http://www.w3.org/2000/svg">
<path d="M60.6992 18.0801V19H54.2422V18.0801H60.6992ZM54.4238 18.0801V21.0977H53.3047L53.2988 18.0801H54.4238ZM61.6836 18.0801L61.6719 21.0918H60.5527V18.0801H61.6836ZM59.5918 10.4688V11.3945H55.8535V10.4688H59.5918ZM60.5645 10.4688V19H59.4395V10.4688H60.5645ZM55.4668 10.4688H56.5977L56.4219 13.9023C56.3984 14.418 56.3496 14.8945 56.2754 15.332C56.2012 15.7656 56.1094 16.1621 56 16.5215C55.8906 16.8809 55.7656 17.2031 55.625 17.4883C55.4844 17.7695 55.334 18.0137 55.1738 18.2207C55.0137 18.4238 54.8457 18.5918 54.6699 18.7246C54.498 18.8535 54.3242 18.9453 54.1484 19H53.6328V18.0801H53.9961C54.0977 17.9707 54.2129 17.8125 54.3418 17.6055C54.4746 17.3984 54.6055 17.1309 54.7344 16.8027C54.8672 16.4707 54.9824 16.0664 55.0801 15.5898C55.1816 15.1133 55.25 14.5508 55.2852 13.9023L55.4668 10.4688ZM69.4414 14.4648V15.0039C69.4414 15.6445 69.3613 16.2188 69.2012 16.7266C69.041 17.2344 68.8105 17.666 68.5098 18.0215C68.209 18.377 67.8477 18.6484 67.4258 18.8359C67.0078 19.0234 66.5391 19.1172 66.0195 19.1172C65.5156 19.1172 65.0527 19.0234 64.6309 18.8359C64.2129 18.6484 63.8496 18.377 63.541 18.0215C63.2363 17.666 63 17.2344 62.832 16.7266C62.6641 16.2188 62.5801 15.6445 62.5801 15.0039V14.4648C62.5801 13.8242 62.6621 13.252 62.8262 12.748C62.9941 12.2402 63.2305 11.8086 63.5352 11.4531C63.8398 11.0938 64.2012 10.8203 64.6191 10.6328C65.041 10.4453 65.5039 10.3516 66.0078 10.3516C66.5273 10.3516 66.9961 10.4453 67.4141 10.6328C67.8359 10.8203 68.1973 11.0938 68.498 11.4531C68.8027 11.8086 69.0352 12.2402 69.1953 12.748C69.3594 13.252 69.4414 13.8242 69.4414 14.4648ZM68.3223 15.0039V14.4531C68.3223 13.9453 68.2695 13.4961 68.1641 13.1055C68.0625 12.7148 67.9121 12.3867 67.7129 12.1211C67.5137 11.8555 67.2695 11.6543 66.9805 11.5176C66.6953 11.3809 66.3711 11.3125 66.0078 11.3125C65.6562 11.3125 65.3379 11.3809 65.0527 11.5176C64.7715 11.6543 64.5293 11.8555 64.3262 12.1211C64.127 12.3867 63.9727 12.7148 63.8633 13.1055C63.7539 13.4961 63.6992 13.9453 63.6992 14.4531V15.0039C63.6992 15.5156 63.7539 15.9688 63.8633 16.3633C63.9727 16.7539 64.1289 17.084 64.332 17.3535C64.5391 17.6191 64.7832 17.8203 65.0645 17.957C65.3496 18.0938 65.668 18.1621 66.0195 18.1621C66.3867 18.1621 66.7129 18.0938 66.998 17.957C67.2832 17.8203 67.5234 17.6191 67.7188 17.3535C67.918 17.084 68.0684 16.7539 68.1699 16.3633C68.2715 15.9688 68.3223 15.5156 68.3223 15.0039ZM76.2852 16.2871H77.4102C77.3516 16.8262 77.1973 17.3086 76.9473 17.7344C76.6973 18.1602 76.3438 18.498 75.8867 18.748C75.4297 18.9941 74.8594 19.1172 74.1758 19.1172C73.6758 19.1172 73.2207 19.0234 72.8105 18.8359C72.4043 18.6484 72.0547 18.3828 71.7617 18.0391C71.4688 17.6914 71.2422 17.2754 71.082 16.791C70.9258 16.3027 70.8477 15.7598 70.8477 15.1621V14.3125C70.8477 13.7148 70.9258 13.1738 71.082 12.6895C71.2422 12.2012 71.4707 11.7832 71.7676 11.4355C72.0684 11.0879 72.4297 10.8203 72.8516 10.6328C73.2734 10.4453 73.748 10.3516 74.2754 10.3516C74.9199 10.3516 75.4648 10.4727 75.9102 10.7148C76.3555 10.957 76.7012 11.293 76.9473 11.7227C77.1973 12.1484 77.3516 12.6426 77.4102 13.2051H76.2852C76.2305 12.8066 76.1289 12.4648 75.9805 12.1797C75.832 11.8906 75.6211 11.668 75.3477 11.5117C75.0742 11.3555 74.7168 11.2773 74.2754 11.2773C73.8965 11.2773 73.5625 11.3496 73.2734 11.4941C72.9883 11.6387 72.748 11.8438 72.5527 12.1094C72.3613 12.375 72.2168 12.6934 72.1191 13.0645C72.0215 13.4355 71.9727 13.8477 71.9727 14.3008V15.1621C71.9727 15.5801 72.0156 15.9727 72.1016 16.3398C72.1914 16.707 72.3262 17.0293 72.5059 17.3066C72.6855 17.584 72.9141 17.8027 73.1914 17.9629C73.4688 18.1191 73.7969 18.1973 74.1758 18.1973C74.6562 18.1973 75.0391 18.1211 75.3242 17.9688C75.6094 17.8164 75.8242 17.5977 75.9688 17.3125C76.1172 17.0273 76.2227 16.6855 76.2852 16.2871ZM81.9277 10.4688V19H80.8145V10.4688H81.9277ZM84.6699 10.4688V11.3945H78.0781V10.4688H84.6699ZM88.5781 16.1699L90.834 10.4688H92.1348L89.1172 17.5762C89.0312 17.7754 88.9355 17.9688 88.8301 18.1562C88.7246 18.3398 88.5957 18.5039 88.4434 18.6484C88.291 18.793 88.1016 18.9082 87.875 18.9941C87.6523 19.0801 87.375 19.123 87.043 19.123C86.9492 19.123 86.8379 19.1172 86.709 19.1055C86.5801 19.0977 86.4961 19.0879 86.457 19.0762L86.4922 18.1738C86.5352 18.1816 86.6191 18.1895 86.7441 18.1973C86.8691 18.2012 86.9609 18.2031 87.0195 18.2031C87.2422 18.2031 87.418 18.1582 87.5469 18.0684C87.6758 17.9785 87.7793 17.8652 87.8574 17.7285C87.9395 17.5879 88.0137 17.4453 88.0801 17.3008L88.5781 16.1699ZM86.6621 10.4688L89.0352 15.7832L89.3164 16.832L88.3672 16.9023L85.3965 10.4688H86.6621ZM99.998 10.4688V19H98.873V11.3945H94.666V19H93.5352V10.4688H99.998ZM107.621 14.1367V15.0566H103.004V14.1367H107.621ZM103.18 10.4688V19H102.049V10.4688H103.18ZM108.605 10.4688V19H107.48V10.4688H108.605ZM117.184 14.4648V15.0039C117.184 15.6445 117.104 16.2188 116.943 16.7266C116.783 17.2344 116.553 17.666 116.252 18.0215C115.951 18.377 115.59 18.6484 115.168 18.8359C114.75 19.0234 114.281 19.1172 113.762 19.1172C113.258 19.1172 112.795 19.0234 112.373 18.8359C111.955 18.6484 111.592 18.377 111.283 18.0215C110.979 17.666 110.742 17.2344 110.574 16.7266C110.406 16.2188 110.322 15.6445 110.322 15.0039V14.4648C110.322 13.8242 110.404 13.252 110.568 12.748C110.736 12.2402 110.973 11.8086 111.277 11.4531C111.582 11.0938 111.943 10.8203 112.361 10.6328C112.783 10.4453 113.246 10.3516 113.75 10.3516C114.27 10.3516 114.738 10.4453 115.156 10.6328C115.578 10.8203 115.939 11.0938 116.24 11.4531C116.545 11.8086 116.777 12.2402 116.938 12.748C117.102 13.252 117.184 13.8242 117.184 14.4648ZM116.064 15.0039V14.4531C116.064 13.9453 116.012 13.4961 115.906 13.1055C115.805 12.7148 115.654 12.3867 115.455 12.1211C115.256 11.8555 115.012 11.6543 114.723 11.5176C114.438 11.3809 114.113 11.3125 113.75 11.3125C113.398 11.3125 113.08 11.3809 112.795 11.5176C112.514 11.6543 112.271 11.8555 112.068 12.1211C111.869 12.3867 111.715 12.7148 111.605 13.1055C111.496 13.4961 111.441 13.9453 111.441 14.4531V15.0039C111.441 15.5156 111.496 15.9688 111.605 16.3633C111.715 16.7539 111.871 17.084 112.074 17.3535C112.281 17.6191 112.525 17.8203 112.807 17.957C113.092 18.0938 113.41 18.1621 113.762 18.1621C114.129 18.1621 114.455 18.0938 114.74 17.957C115.025 17.8203 115.266 17.6191 115.461 17.3535C115.66 17.084 115.811 16.7539 115.912 16.3633C116.014 15.9688 116.064 15.5156 116.064 15.0039ZM124.895 15.0098H122.732L122.721 14.1016H124.684C125.008 14.1016 125.291 14.0469 125.533 13.9375C125.775 13.8281 125.963 13.6719 126.096 13.4688C126.232 13.2617 126.301 13.0156 126.301 12.7305C126.301 12.418 126.24 12.1641 126.119 11.9688C126.002 11.7695 125.82 11.625 125.574 11.5352C125.332 11.4414 125.023 11.3945 124.648 11.3945H122.984V19H121.854V10.4688H124.648C125.086 10.4688 125.477 10.5137 125.82 10.6035C126.164 10.6895 126.455 10.8262 126.693 11.0137C126.936 11.1973 127.119 11.4316 127.244 11.7168C127.369 12.002 127.432 12.3438 127.432 12.7422C127.432 13.0938 127.342 13.4121 127.162 13.6973C126.982 13.9785 126.732 14.209 126.412 14.3887C126.096 14.5684 125.725 14.6836 125.299 14.7344L124.895 15.0098ZM124.842 19H122.287L122.926 18.0801H124.842C125.201 18.0801 125.506 18.0176 125.756 17.8926C126.01 17.7676 126.203 17.5918 126.336 17.3652C126.469 17.1348 126.535 16.8633 126.535 16.5508C126.535 16.2344 126.479 15.9609 126.365 15.7305C126.252 15.5 126.074 15.3223 125.832 15.1973C125.59 15.0723 125.277 15.0098 124.895 15.0098H123.283L123.295 14.1016H125.498L125.738 14.4297C126.148 14.4648 126.496 14.582 126.781 14.7812C127.066 14.9766 127.283 15.2266 127.432 15.5312C127.584 15.8359 127.66 16.1719 127.66 16.5391C127.66 17.0703 127.543 17.5195 127.309 17.8867C127.078 18.25 126.752 18.5273 126.33 18.7188C125.908 18.9062 125.412 19 124.842 19Z" fill="white"/>
<path fill-rule="evenodd" clip-rule="evenodd" d="M14.6308 15.5464C14.2302 15.9769 14 16.6395 14 17.5005V48.1252C14 48.9862 14.2302 49.6488 14.6457 50.0643L14.7543 50.156L31.914 32.9963V32.6107L14.7393 15.4547L14.6308 15.5464Z" fill="url(#paint0_linear_1405_269)"/>
<path fill-rule="evenodd" clip-rule="evenodd" d="M37.6227 38.7386L31.8991 33.013V32.6125L37.6246 26.887L37.7481 26.9637L44.5199 30.8119C46.459 31.905 46.459 33.7056 44.5199 34.8136L37.7481 38.6618C37.7463 38.6618 37.6227 38.7386 37.6227 38.7386Z" fill="url(#paint1_linear_1405_269)"/>
<path fill-rule="evenodd" clip-rule="evenodd" d="M37.7463 38.6619L31.8991 32.8129L14.6308 50.0812C15.2615 50.7587 16.3228 50.8355 17.5094 50.1729L37.7463 38.6619Z" fill="url(#paint2_linear_1405_269)"/>
<path fill-rule="evenodd" clip-rule="evenodd" d="M37.7463 26.9656L17.5094 15.4696C16.3247 14.7921 15.2615 14.8838 14.6308 15.5613L31.8972 32.8128L37.7463 26.9656Z" fill="url(#paint3_linear_1405_269)"/>
<path opacity="0.2" fill-rule="evenodd" clip-rule="evenodd" d="M37.6227 38.5383L17.5244 49.9576C16.4014 50.6033 15.4 50.5584 14.7543 49.9725L14.6457 50.0811L14.7543 50.1728C15.4 50.7568 16.4014 50.8036 17.5244 50.1578L37.7612 38.6619L37.6227 38.5383Z" fill="black"/>
<path opacity="0.12" fill-rule="evenodd" clip-rule="evenodd" d="M44.5181 34.6134L37.6077 38.5384L37.7313 38.6619L44.5031 34.8137C45.4726 34.2597 45.9499 33.5372 45.9499 32.8129C45.8881 33.4754 45.3959 34.1062 44.5181 34.6134Z" fill="black"/>
<path opacity="0.25" fill-rule="evenodd" clip-rule="evenodd" d="M17.5094 15.6699L44.5181 31.0141C45.3959 31.5064 45.8882 32.1521 45.9649 32.8147C45.9649 32.0922 45.4876 31.3679 44.5181 30.8138L17.5094 15.4696C15.5704 14.3616 14 15.2843 14 17.5004V17.7007C14 15.4846 15.5704 14.5768 17.5094 15.6699Z" fill="white"/>
<path fill-rule="evenodd" clip-rule="evenodd" d="M52.5577 35.4285C52.5577 29.6802 57.3892 25 63.1375 25C66.3153 25 68.5765 26.2479 70.2828 27.873L68.2738 29.882C67.0544 28.7371 65.4008 27.8489 63.1353 27.8489C58.9376 27.8489 55.6566 31.2286 55.6566 35.4263C55.6566 39.624 58.9376 43.008 63.1331 43.008C65.8548 43.008 67.4032 41.9158 68.3967 40.9201C69.2103 40.1065 69.7433 38.9375 69.9494 37.3343H63.1375V34.492H72.726C72.8268 35.0008 72.8795 35.6105 72.8795 36.2706C72.8795 38.4046 72.2939 41.0517 70.41 42.9357C68.5765 44.8437 66.2386 45.8613 63.1353 45.8613C57.3848 45.8613 52.5533 41.1855 52.5533 35.4329L52.5577 35.4285ZM80.6301 32.4282C76.9171 32.4282 73.8861 35.253 73.8861 39.1415C73.8861 43.0102 76.9149 45.8547 80.6301 45.8547C84.3453 45.8547 87.3697 43.0058 87.3697 39.1393C87.3697 35.2508 84.3431 32.426 80.6301 32.4282ZM80.6301 43.2142C78.597 43.2142 76.8403 41.5364 76.8403 39.1437C76.8403 36.7268 78.5948 35.0732 80.6301 35.0732C82.6632 35.0732 84.4177 36.7246 84.4177 39.1437C84.4177 41.5342 82.6653 43.2142 80.6301 43.2142ZM95.3352 32.4282C91.6222 32.4282 88.5956 35.253 88.5956 39.1415C88.5956 43.0102 91.6222 45.8547 95.3352 45.8547C99.0482 45.8547 102.075 43.0058 102.075 39.1393C102.075 35.2508 99.0504 32.426 95.3352 32.4282ZM95.3352 43.2142C93.3022 43.2142 91.5454 41.5364 91.5454 39.1437C91.5454 36.7268 93.3 35.0732 95.3352 35.0732C97.3683 35.0732 99.125 36.7246 99.125 39.1437C99.125 41.5342 97.3683 43.2142 95.3352 43.2142ZM113.383 32.8362V33.9283H113.282C112.622 33.1366 111.35 32.426 109.749 32.426C106.391 32.426 103.31 35.378 103.31 39.17C103.31 42.9313 106.389 45.8591 109.749 45.8591C111.35 45.8591 112.622 45.1486 113.282 44.3349H113.383V45.2999C113.383 47.8681 112.01 49.2432 109.797 49.2432C107.99 49.2432 106.871 47.9448 106.413 46.8548L103.842 47.9229C104.579 49.7015 106.54 51.8903 109.795 51.8903C113.251 51.8903 116.177 49.8529 116.177 44.8941V32.834L113.383 32.8362ZM110.001 43.2142C107.968 43.2142 106.259 41.5079 106.259 39.17C106.259 36.8058 107.966 35.0754 110.001 35.0754C112.01 35.0754 113.587 36.8036 113.587 39.17C113.589 41.5079 112.012 43.2142 110.001 43.2142ZM118.214 25.7128H121.166V45.4512H118.214V25.7128ZM129.257 43.2142C127.757 43.2142 126.686 42.5255 126.004 41.1811L134.983 37.4637L134.674 36.7005C134.117 35.2026 132.411 32.4282 128.926 32.4282C125.467 32.4282 122.592 35.1499 122.592 39.1437C122.592 42.9049 125.441 45.8569 129.257 45.8569C132.336 45.8569 134.117 43.9774 134.854 42.8808L132.564 41.3566C131.799 42.4773 130.755 43.2164 129.257 43.2142ZM129.027 35.0227C130.195 35.0227 131.187 35.6083 131.518 36.4461L125.513 38.9397C125.439 36.3452 127.524 35.0227 129.027 35.0227Z" fill="white"/>
<path fill-rule="evenodd" clip-rule="evenodd" d="M147.936 25.7129H140.878V45.4513H143.824V37.9748H147.938C151.204 37.9748 154.415 35.6106 154.415 31.8428C154.415 28.0815 151.206 25.7151 147.943 25.7151L147.936 25.7129ZM148.013 35.2268H143.824V28.4587H148.013C150.215 28.4587 151.469 30.2856 151.469 31.8428C151.469 33.3736 150.215 35.2268 148.013 35.2268ZM158.983 45.4513V25.7129H156.037V45.4513H158.983ZM172.214 45.4162V37.8498C172.214 34.3452 169.596 32.3911 166.216 32.3911C164.086 32.3911 161.878 33.3319 160.963 35.4132L163.578 36.5032C164.137 35.4132 165.176 35.0557 166.271 35.0557C167.793 35.0557 169.341 35.9703 169.365 37.5976V37.8016C168.832 37.4967 167.692 37.0384 166.293 37.0384C163.474 37.0384 160.606 38.5867 160.606 41.4817C160.606 44.1245 162.917 45.8242 165.508 45.8242C167.49 45.8242 168.58 44.9359 169.264 43.8964H169.365V45.4206H172.212L172.214 45.4162ZM165.865 43.2099C164.9 43.2099 163.553 42.7274 163.553 41.5365C163.553 40.0123 165.231 39.4245 166.679 39.4245C167.975 39.4245 168.582 39.703 169.372 40.0847C169.146 41.8567 167.648 43.188 165.865 43.2099ZM182.572 32.8231L179.195 41.3786H179.094L175.589 32.8231H172.416L177.671 44.7846L174.673 51.4364H177.745L185.845 32.8231H182.572Z" fill="white"/>
<rect x="1" y="1" width="198" height="59" rx="6" stroke="white" stroke-width="2"/>
<defs>
<linearGradient id="paint0_linear_1405_269" x1="30.3732" y1="17.1713" x2="2.88623" y2="24.4952" gradientUnits="userSpaceOnUse">
<stop stop-color="#00A0FF"/>
<stop offset="0.007" stop-color="#00A1FF"/>
<stop offset="0.26" stop-color="#00BEFF"/>
<stop offset="0.512" stop-color="#00D2FF"/>
<stop offset="0.76" stop-color="#00DFFF"/>
<stop offset="1" stop-color="#00E3FF"/>
</linearGradient>
<linearGradient id="paint1_linear_1405_269" x1="47.0432" y1="32.8136" x2="13.5287" y2="32.8136" gradientUnits="userSpaceOnUse">
<stop stop-color="#FFE000"/>
<stop offset="0.409" stop-color="#FFBD00"/>
<stop offset="0.775" stop-color="#FFA500"/>
<stop offset="1" stop-color="#FF9C00"/>
</linearGradient>
<linearGradient id="paint2_linear_1405_269" x1="34.5667" y1="35.9948" x2="12.5001" y2="73.1343" gradientUnits="userSpaceOnUse">
<stop stop-color="#FF3A44"/>
<stop offset="1" stop-color="#C31162"/>
</linearGradient>
<linearGradient id="paint3_linear_1405_269" x1="10.2839" y1="5.3591" x2="20.1285" y2="21.9462" gradientUnits="userSpaceOnUse">
<stop stop-color="#32A071"/>
<stop offset="0.069" stop-color="#2DA771"/>
<stop offset="0.476" stop-color="#15CF74"/>
<stop offset="0.801" stop-color="#06E775"/>
<stop offset="1" stop-color="#00F076"/>
</linearGradient>
</defs>
</svg>
