<svg width="200" height="61" fill="none" xmlns="http://www.w3.org/2000/svg"><path d="M60.7 18.08V19h-6.458v-.92H60.7zm-6.276 0v3.018h-1.12L53.3 18.08h1.125zm7.26 0l-.012 3.012h-1.12V18.08h1.132zm-2.092-7.611v.926h-3.739v-.926h3.739zm.973 0V19H59.44v-8.531h1.125zm-5.098 0h1.13l-.175 3.433c-.024.516-.072.993-.147 1.43a9.79 9.79 0 01-.275 1.19 6.41 6.41 0 01-.375.966c-.14.282-.291.526-.451.733a2.79 2.79 0 01-.504.504 1.73 1.73 0 01-.522.275h-.515v-.92h.363c.102-.11.217-.267.346-.474.133-.208.264-.475.392-.803a7.22 7.22 0 00.346-1.213c.102-.477.17-1.04.205-1.688l.182-3.433zm13.974 3.996v.539c0 .64-.08 1.215-.24 1.723-.16.507-.39.939-.691 1.294a3 3 0 01-1.084.815 3.399 3.399 0 01-1.407.281 3.38 3.38 0 01-1.388-.281 3.122 3.122 0 01-1.09-.814 3.795 3.795 0 01-.709-1.295c-.168-.508-.252-1.082-.252-1.723v-.54c0-.64.082-1.212.246-1.716.168-.508.404-.94.71-1.295.304-.36.665-.633 1.083-.82a3.381 3.381 0 011.389-.281 3.4 3.4 0 011.406.28c.422.188.783.462 1.084.821.305.356.537.787.697 1.295.164.504.246 1.076.246 1.717zm-1.119.539v-.55a5.19 5.19 0 00-.158-1.349 2.795 2.795 0 00-.451-.984 1.946 1.946 0 00-.732-.603 2.223 2.223 0 00-.973-.206c-.352 0-.67.069-.955.206a2.022 2.022 0 00-.727.603 2.95 2.95 0 00-.463.984c-.11.391-.164.84-.164 1.348v.55c0 .513.055.966.164 1.36.11.39.266.721.469.99.207.266.451.467.733.604.285.137.603.205.954.205.368 0 .694-.068.979-.205.285-.137.525-.338.72-.604.2-.269.35-.6.452-.99a5.45 5.45 0 00.152-1.36zm7.963 1.283h1.125a3.588 3.588 0 01-.463 1.447c-.25.426-.603.764-1.06 1.014-.457.246-1.028.37-1.711.37-.5 0-.955-.095-1.365-.282a3.035 3.035 0 01-1.05-.797 3.732 3.732 0 01-.679-1.248 5.328 5.328 0 01-.234-1.629v-.85c0-.597.078-1.138.234-1.622.16-.489.389-.907.686-1.255a3.05 3.05 0 011.084-.802 3.469 3.469 0 011.423-.281c.645 0 1.19.12 1.635.363.446.242.791.578 1.037 1.008.25.425.405.92.463 1.482h-1.125a3.136 3.136 0 00-.304-1.025 1.585 1.585 0 00-.633-.668c-.274-.157-.631-.235-1.073-.235-.379 0-.713.073-1.002.217a2.02 2.02 0 00-.72.615 2.864 2.864 0 00-.434.956 4.859 4.859 0 00-.146 1.236v.861c0 .418.043.81.129 1.178.09.367.224.69.404.967a2 2 0 00.685.656c.278.156.606.234.985.234.48 0 .863-.076 1.148-.228a1.5 1.5 0 00.645-.657c.148-.285.254-.627.316-1.025zm5.643-5.818V19h-1.114v-8.531h1.114zm2.742 0v.926h-6.592v-.926h6.592zm3.908 5.7l2.256-5.7h1.3l-3.017 7.107c-.086.2-.181.393-.287.58a2.154 2.154 0 01-.387.492c-.152.145-.341.26-.568.346-.223.086-.5.129-.832.129-.094 0-.205-.006-.334-.018a1.405 1.405 0 01-.252-.029l.035-.902c.043.008.127.015.252.023.125.004.217.006.275.006.223 0 .399-.045.528-.135a1.03 1.03 0 00.31-.34c.082-.14.157-.283.223-.427l.498-1.131zm-1.916-5.7l2.373 5.314.281 1.049-.949.07-2.97-6.433h1.265zm13.336 0V19h-1.125v-7.605h-4.207V19h-1.13v-8.531h6.462zm7.623 3.668v.92h-4.617v-.92h4.617zm-4.441-3.668V19h-1.131v-8.531h1.131zm5.425 0V19h-1.125v-8.531h1.125zm8.579 3.996v.539c0 .64-.08 1.215-.241 1.723-.16.507-.39.939-.691 1.294a3 3 0 01-1.084.815 3.4 3.4 0 01-1.406.281 3.39 3.39 0 01-1.389-.281 3.126 3.126 0 01-1.09-.814 3.807 3.807 0 01-.709-1.295c-.168-.508-.252-1.082-.252-1.723v-.54c0-.64.082-1.212.246-1.716a3.8 3.8 0 01.709-1.295 3.04 3.04 0 011.084-.82 3.382 3.382 0 011.389-.281c.52 0 .988.093 1.406.28.422.188.783.462 1.084.821.305.356.537.787.698 1.295.164.504.246 1.076.246 1.717zm-1.12.539v-.55c0-.509-.052-.958-.158-1.349a2.787 2.787 0 00-.451-.984 1.944 1.944 0 00-.732-.603 2.225 2.225 0 00-.973-.206c-.352 0-.67.069-.955.206a2.025 2.025 0 00-.727.603 2.966 2.966 0 00-.463.984c-.109.391-.164.84-.164 1.348v.55c0 .513.055.966.164 1.36.11.39.266.721.469.99.207.266.451.467.733.604.285.137.603.205.955.205.367 0 .693-.068.978-.205a1.91 1.91 0 00.721-.604c.199-.269.35-.6.451-.99a5.45 5.45 0 00.152-1.36zm8.831.006h-2.163l-.011-.908h1.963c.324 0 .607-.055.849-.165.242-.109.43-.265.563-.468.136-.207.205-.453.205-.739 0-.312-.061-.566-.182-.761a1.004 1.004 0 00-.545-.434c-.242-.094-.551-.14-.926-.14h-1.664V19h-1.13v-8.531h2.794c.438 0 .829.045 1.172.135.344.086.635.222.873.41.243.183.426.418.551.703.125.285.188.627.188 1.025 0 .352-.09.67-.27.955-.18.282-.43.512-.75.692-.316.18-.687.295-1.113.345l-.404.276zm-.053 3.99h-2.555l.639-.92h1.916c.359 0 .664-.062.914-.187.254-.125.447-.301.58-.528a1.6 1.6 0 00.199-.814c0-.317-.056-.59-.17-.82a1.173 1.173 0 00-.533-.534c-.242-.125-.555-.187-.937-.187h-1.612l.012-.908h2.203l.24.328c.41.035.758.152 1.043.351.285.196.502.446.651.75.152.305.228.64.228 1.008 0 .531-.117.98-.351 1.348-.231.363-.557.64-.979.832-.422.187-.918.281-1.488.281z" fill="#fff"/><path fill-rule="evenodd" clip-rule="evenodd" d="M14.63 15.546c-.4.43-.63 1.094-.63 1.954v30.625c0 .861.23 1.524.646 1.94l.108.091 17.16-17.16v-.385L14.739 15.455l-.108.091z" fill="url(#paint0_linear_1405_269)"/><path fill-rule="evenodd" clip-rule="evenodd" d="M37.623 38.739l-5.724-5.726v-.4l5.726-5.726.123.077 6.772 3.848c1.939 1.093 1.939 2.894 0 4.002l-6.772 3.848c-.002 0-.125.077-.125.077z" fill="url(#paint1_linear_1405_269)"/><path fill-rule="evenodd" clip-rule="evenodd" d="M37.746 38.662l-5.847-5.85-17.268 17.27c.63.677 1.692.754 2.878.09l20.237-11.51z" fill="url(#paint2_linear_1405_269)"/><path fill-rule="evenodd" clip-rule="evenodd" d="M37.746 26.966L17.51 15.47c-1.184-.678-2.248-.586-2.878.091l17.266 17.252 5.85-5.847z" fill="url(#paint3_linear_1405_269)"/><path opacity=".2" fill-rule="evenodd" clip-rule="evenodd" d="M37.623 38.538l-20.099 11.42c-1.123.645-2.124.6-2.77.014l-.108.11.108.09c.646.585 1.647.632 2.77-.014l20.237-11.496-.138-.124z" fill="#000"/><path opacity=".12" fill-rule="evenodd" clip-rule="evenodd" d="M44.518 34.613l-6.91 3.925.123.124 6.772-3.848c.97-.554 1.447-1.277 1.447-2.001-.062.662-.554 1.293-1.432 1.8z" fill="#000"/><path opacity=".25" fill-rule="evenodd" clip-rule="evenodd" d="M17.51 15.67l27.008 15.344c.878.492 1.37 1.138 1.447 1.8 0-.722-.477-1.446-1.447-2L17.51 15.47C15.57 14.362 14 15.284 14 17.5v.2c0-2.215 1.57-3.123 3.51-2.03z" fill="#fff"/><path fill-rule="evenodd" clip-rule="evenodd" d="M52.558 35.428C52.558 29.68 57.389 25 63.138 25c3.177 0 5.438 1.248 7.145 2.873l-2.01 2.009c-1.219-1.145-2.872-2.033-5.138-2.033-4.197 0-7.478 3.38-7.478 7.577 0 4.198 3.28 7.582 7.476 7.582 2.722 0 4.27-1.092 5.264-2.088.813-.814 1.346-1.983 1.552-3.586h-6.811v-2.842h9.588c.1.509.153 1.119.153 1.779 0 2.134-.585 4.78-2.469 6.665-1.834 1.908-4.171 2.925-7.275 2.925-5.75 0-10.582-4.675-10.582-10.428l.005-.005zm28.072-3c-3.713 0-6.744 2.825-6.744 6.714 0 3.868 3.029 6.713 6.744 6.713s6.74-2.85 6.74-6.716c0-3.888-3.027-6.713-6.74-6.71zm0 10.786c-2.033 0-3.79-1.678-3.79-4.07 0-2.417 1.755-4.07 3.79-4.07 2.033 0 3.788 1.65 3.788 4.07 0 2.39-1.753 4.07-3.788 4.07zm14.705-10.786c-3.713 0-6.74 2.825-6.74 6.714 0 3.868 3.027 6.713 6.74 6.713s6.74-2.85 6.74-6.716c0-3.888-3.025-6.713-6.74-6.71zm0 10.786c-2.033 0-3.79-1.678-3.79-4.07 0-2.417 1.755-4.07 3.79-4.07 2.033 0 3.79 1.65 3.79 4.07 0 2.39-1.757 4.07-3.79 4.07zm18.048-10.378v1.092h-.101c-.66-.791-1.932-1.502-3.533-1.502-3.358 0-6.439 2.952-6.439 6.744 0 3.761 3.079 6.69 6.439 6.69 1.601 0 2.873-.711 3.533-1.525h.101v.965c0 2.568-1.373 3.943-3.586 3.943-1.807 0-2.926-1.298-3.384-2.388l-2.571 1.068c.737 1.779 2.698 3.967 5.953 3.967 3.456 0 6.382-2.037 6.382-6.996v-12.06l-2.794.002zm-3.382 10.378c-2.033 0-3.742-1.706-3.742-4.044 0-2.364 1.707-4.095 3.742-4.095 2.009 0 3.586 1.729 3.586 4.095.002 2.338-1.575 4.044-3.586 4.044zm8.213-17.501h2.952V45.45h-2.952V25.713zm11.043 17.501c-1.5 0-2.571-.688-3.253-2.033l8.979-3.717-.309-.764c-.557-1.497-2.263-4.272-5.748-4.272-3.459 0-6.334 2.722-6.334 6.716 0 3.76 2.849 6.713 6.665 6.713 3.079 0 4.86-1.88 5.597-2.976l-2.29-1.524c-.765 1.12-1.809 1.86-3.307 1.857zm-.23-8.191c1.168 0 2.16.585 2.491 1.423l-6.005 2.494c-.074-2.595 2.011-3.917 3.514-3.917zm18.909-9.31h-7.058V45.45h2.946v-7.476h4.114c3.266 0 6.477-2.364 6.477-6.132 0-3.762-3.209-6.128-6.472-6.128l-.007-.002zm.077 9.514h-4.189v-6.768h4.189c2.202 0 3.456 1.827 3.456 3.384 0 1.53-1.254 3.384-3.456 3.384zm10.97 10.224V25.713h-2.946V45.45h2.946zm13.231-.035V37.85c0-3.505-2.618-5.459-5.998-5.459-2.13 0-4.338.94-5.253 3.022l2.615 1.09c.559-1.09 1.598-1.447 2.693-1.447 1.522 0 3.07.914 3.094 2.542v.204c-.533-.305-1.673-.764-3.072-.764-2.819 0-5.687 1.549-5.687 4.444 0 2.642 2.311 4.342 4.902 4.342 1.982 0 3.072-.888 3.756-1.928h.101v1.525h2.847l.002-.005zm-6.349-2.206c-.965 0-2.312-.483-2.312-1.674 0-1.524 1.678-2.111 3.126-2.111 1.296 0 1.903.278 2.693.66a3.58 3.58 0 01-3.507 3.125zm16.707-10.387l-3.377 8.556h-.101l-3.505-8.556h-3.173l5.255 11.962-2.998 6.651h3.072l8.1-18.613h-3.273z" fill="#fff"/><rect x="1" y="1" width="198" height="59" rx="6" stroke="#fff" stroke-width="2"/><defs><linearGradient id="paint0_linear_1405_269" x1="30.373" y1="17.171" x2="2.886" y2="24.495" gradientUnits="userSpaceOnUse"><stop stop-color="#00A0FF"/><stop offset=".007" stop-color="#00A1FF"/><stop offset=".26" stop-color="#00BEFF"/><stop offset=".512" stop-color="#00D2FF"/><stop offset=".76" stop-color="#00DFFF"/><stop offset="1" stop-color="#00E3FF"/></linearGradient><linearGradient id="paint1_linear_1405_269" x1="47.043" y1="32.814" x2="13.529" y2="32.814" gradientUnits="userSpaceOnUse"><stop stop-color="#FFE000"/><stop offset=".409" stop-color="#FFBD00"/><stop offset=".775" stop-color="orange"/><stop offset="1" stop-color="#FF9C00"/></linearGradient><linearGradient id="paint2_linear_1405_269" x1="34.567" y1="35.995" x2="12.5" y2="73.134" gradientUnits="userSpaceOnUse"><stop stop-color="#FF3A44"/><stop offset="1" stop-color="#C31162"/></linearGradient><linearGradient id="paint3_linear_1405_269" x1="10.284" y1="5.359" x2="20.128" y2="21.946" gradientUnits="userSpaceOnUse"><stop stop-color="#32A071"/><stop offset=".069" stop-color="#2DA771"/><stop offset=".476" stop-color="#15CF74"/><stop offset=".801" stop-color="#06E775"/><stop offset="1" stop-color="#00F076"/></linearGradient></defs></svg>