<svg width="256" height="68" fill="none" xmlns="http://www.w3.org/2000/svg"><circle cx="238.5" cy="17.5" r="17" stroke="#E3E3E3"/><path d="M232.609 23h-2.218v-8.688l-2.164.836v-1.843l4.148-1.696h.234V23zm8.5-11.492v1.875h-.125c-.828.005-1.487.255-1.976.75-.485.49-.779 1.177-.883 2.062a2.269 2.269 0 011.781-.812c.823 0 1.479.351 1.969 1.055.495.703.742 1.64.742 2.812 0 .745-.14 1.417-.422 2.016-.281.599-.677 1.065-1.187 1.398a3.086 3.086 0 01-1.719.492c-1.031 0-1.859-.414-2.484-1.242-.62-.828-.93-1.943-.93-3.344v-.82c0-1.255.195-2.354.586-3.297.396-.943.963-1.666 1.703-2.172.745-.51 1.612-.768 2.602-.773h.343zm-1.898 5.703a1.01 1.01 0 00-.711.266 1.657 1.657 0 00-.422.656v.797c0 .802.107 1.4.32 1.797.214.395.495.593.844.593.354 0 .638-.19.852-.57.213-.385.32-.878.32-1.477 0-.609-.112-1.104-.336-1.484-.219-.385-.508-.578-.867-.578zm8.82-.586h2.211v2.055h-2.211v3.18h-2.093v-3.18h-2.25v-2.055h2.25v-3.047h2.093v3.047z" fill="#BABABA"/><path fill-rule="evenodd" clip-rule="evenodd" d="M161.742 28.176v26.352l-5.215-11.547 5.215-14.805z" fill="#30AFCC"/><path fill-rule="evenodd" clip-rule="evenodd" d="M138.928 67.703l17.599-24.722 5.215 11.547-22.814 13.175z" fill="#56C5D0"/><path fill-rule="evenodd" clip-rule="evenodd" d="M116.115 28.176v26.352l6.798-19.88-6.798-6.472zm22.813 39.527l-7.775-11.453-15.038-1.722 22.813 13.175z" fill="#0054A6"/><path fill-rule="evenodd" clip-rule="evenodd" d="M156.527 42.981L138.928 15l22.814 13.176-5.215 14.805z" fill="#56C5D0"/><path fill-rule="evenodd" clip-rule="evenodd" d="M122.913 34.647L138.928 15l-22.813 13.176 6.798 6.471z" fill="#006DB7"/><path fill-rule="evenodd" clip-rule="evenodd" d="M156.527 42.981L138.928 15l-16.015 19.647 33.614 8.334z" fill="#1090C0"/><path fill-rule="evenodd" clip-rule="evenodd" d="M156.527 42.981l-33.614-8.334 8.24 21.603 25.374-13.269z" fill="#30AFCC"/><path fill-rule="evenodd" clip-rule="evenodd" d="M138.928 67.703l17.599-24.722-25.374 13.27 7.775 11.452z" fill="#1090C0"/><path fill-rule="evenodd" clip-rule="evenodd" d="M131.153 56.25l-15.038-1.723 6.798-19.88 8.24 21.603z" fill="#006DB7"/><path d="M211 45.635v-17.32h-3.957V45.45c0 3.492-2.189 5.633-5.448 5.633-3.259 0-5.4-2.188-5.4-5.633V28.315h-3.958v17.32c0 5.4 4.051 9.032 9.358 9.032 5.354 0 9.405-3.631 9.405-9.032zm-28.447-9.637c0 2.56-1.816 4.097-4.423 4.097h-5.866v-8.241h5.866c2.607 0 4.423 1.536 4.423 4.144zm4.749 18.436l-6.006-11.546c2.933-.791 5.215-3.212 5.215-6.937 0-4.423-3.166-7.636-8.101-7.636h-10.15v26.12h3.957V43.446h4.935l5.494 11.034h4.656v-.047z" fill="#56C5D0"/><path fill-rule="evenodd" clip-rule="evenodd" d="M49.863 28.315h6.565l6.006 13.037V28.315h6.565v26.352h-6.565l-6.006-13.083v13.083h-6.565V28.315zm-18.39 6.565h6.006v13.222h-6.006V34.88zm12.617-6.565H32.544l-7.589 4.377v21.975h11.546l7.59-4.376V28.315zM6.565 34.88h6.006v13.27H6.565V34.88zm4.981-6.565H0v26.352h11.546l7.59-4.376v-17.6l-7.59-4.376z" fill="#006DB7"/><path d="M112.53 50.943v-4.517h-2.374v-4.888h-4.609v4.888h-5.448l8.939-17.924h-5.214l-8.94 17.924v4.517h10.663v3.724h4.609v-3.724h2.374zm-20.671 3.724v-4.33h-10.15l7.356-8.52c1.816-2.095 2.794-3.445 2.794-6.006 0-4.702-3.306-7.635-7.962-7.635-4.516 0-8.008 2.886-8.008 7.682h4.796c0-2.56 1.63-3.352 3.212-3.352 2.049 0 3.166 1.35 3.166 3.305 0 1.21-.419 2.049-1.35 3.166l-9.824 11.36v4.33h15.97z" fill="#006DB7"/></svg>