<?xml version="1.0" encoding="utf-8"?><svg xmlns="http://www.w3.org/2000/svg" xmlns:xlink="http://www.w3.org/1999/xlink"><symbol viewBox="0 0 8 6" id="arrow-down" xmlns="http://www.w3.org/2000/svg"><path d="M6.47.47a.75.75 0 111.06 1.06L6.47.47zM4 4l.53.53-.53.53-.53-.53L4 4zM.47 1.53A.75.75 0 011.53.47L.47 1.53zm7.06 0l-3 3-1.06-1.06 3-3 1.06 1.06zm-4.06 3l-3-3L1.53.47l3 3-1.06 1.06z"/></symbol><symbol viewBox="0 0 12 22" id="arrow-pagination-left" xmlns="http://www.w3.org/2000/svg"><path fill-rule="evenodd" clip-rule="evenodd" d="M12 22H6.449L0 11 6.449 0H12L5.551 11 12 22z"/></symbol><symbol viewBox="0 0 12 22" id="arrow-pagination-right" xmlns="http://www.w3.org/2000/svg"><path fill-rule="evenodd" clip-rule="evenodd" d="M0 22h5.551L12 11 5.551 0H0l6.449 11L0 22z"/></symbol><symbol viewBox="0 0 10 17" id="arrow-right" xmlns="http://www.w3.org/2000/svg"><path fill-rule="evenodd" clip-rule="evenodd" d="M0 0h4.213l4.894 8.5L4.213 17H0l4.894-8.5L0 0z"/></symbol><symbol viewBox="0 0 10 11" id="arrow-up" xmlns="http://www.w3.org/2000/svg"><path fill-rule="evenodd" clip-rule="evenodd" d="M.406 6.238a.812.812 0 010-1.148l4.02-4.02a.812.812 0 011.148 0l.004.004L9.594 5.09a.812.812 0 01-1.149 1.148L5.841 3.634v6.386a.812.812 0 11-1.624 0V3.575L1.554 6.238a.812.812 0 01-1.148 0z"/></symbol><symbol viewBox="0 0 16 16" id="date-fill" xmlns="http://www.w3.org/2000/svg"><path d="M1.333 6c0-.62 0-.93.068-1.184a2 2 0 011.415-1.414c.254-.069.564-.069 1.184-.069h8c.62 0 .93 0 1.184.069A2 2 0 0114.6 4.816c.068.254.068.564.068 1.184 0 .155 0 .233-.017.296a.5.5 0 01-.354.354c-.063.017-.141.017-.296.017H2c-.155 0-.233 0-.296-.017a.5.5 0 01-.354-.354c-.017-.063-.017-.141-.017-.296zm0 4.667c0 1.885 0 2.828.586 3.414.586.586 1.529.586 3.414.586h5.334c1.885 0 2.828 0 3.414-.586.586-.586.586-1.529.586-3.414V9c0-.471 0-.707-.147-.854C14.374 8 14.138 8 13.667 8H2.333c-.471 0-.707 0-.853.146-.147.147-.147.383-.147.854v1.667z"/><path d="M4.667 2v2m6.666-2v2" stroke-width="2" stroke-linecap="round"/></symbol><symbol viewBox="0 0 29 21" id="eye" xmlns="http://www.w3.org/2000/svg"><path d="M14.333 1C6.78 1 2.72 7.114 1.445 9.445c-.216.396-.324.594-.312.873.013.28.141.472.398.856 1.534 2.294 6.283 8.493 12.802 8.493 6.52 0 11.269-6.2 12.803-8.493.257-.384.385-.576.398-.855.012-.28-.096-.478-.313-.874h0C25.948 7.114 21.887 1 14.333 1z" stroke-width="1.5"/><circle cx="14.333" cy="10.333" r="4" stroke-width="1.5"/></symbol><symbol viewBox="0 0 16 12" id="eye-fill" xmlns="http://www.w3.org/2000/svg"><path fill-rule="evenodd" clip-rule="evenodd" d="M.69 4.106C1.905 2.389 4.27 0 7.998 0s6.093 2.39 7.31 4.106c.472.665.707.998.688 1.667-.02.67-.288 1.005-.826 1.676C13.793 9.17 11.25 11.64 8 11.64S2.206 9.17.828 7.449C.289 6.778.02 6.442 0 5.773c-.02-.669.216-1.002.688-1.667zm7.309 5.04a3.326 3.326 0 100-6.652 3.326 3.326 0 000 6.652z"/></symbol><symbol viewBox="0 0 18 18" id="fb" xmlns="http://www.w3.org/2000/svg"><path fill-rule="evenodd" clip-rule="evenodd" d="M8.92.23a8.672 8.672 0 011.355 17.239v-6.06h2.02l.385-2.507h-2.405V7.276c0-.514.19-1.02.738-1.24.11-.043.233-.076.371-.095.095-.013.196-.02.304-.02h1.094V3.788s-.992-.169-1.941-.169c-.495 0-.948.075-1.348.222a2.927 2.927 0 00-.651.333c-.807.554-1.277 1.51-1.277 2.819v1.91H5.364v2.507h2.201v6.06A8.672 8.672 0 018.92.23z"/></symbol><symbol viewBox="0 0 15 15" id="insta" xmlns="http://www.w3.org/2000/svg"><path fill-rule="evenodd" clip-rule="evenodd" d="M7.095.807H4.113c-.598 0-1.125.142-1.523.25l-.225.059c-.514.206-.925.411-1.234.822-.411.412-.617.823-.823 1.234C.103 3.584 0 4.201 0 4.92v5.964c0 .599.142 1.126.25 1.523l.058.226c.206.514.412.925.823 1.234.411.308.823.616 1.234.822.411.206 1.028.309 1.748.309h5.964c.598 0 1.126-.143 1.523-.25l.225-.059c.514-.206.926-.411 1.234-.822.309-.412.617-.823.823-1.235.205-.41.308-1.028.308-1.748V4.92c0-.598-.142-1.125-.249-1.522l-.06-.226c-.205-.514-.41-.925-.822-1.234-.411-.41-.822-.616-1.234-.822-.411-.206-1.028-.309-1.748-.309H7.095zm4.73 3.394a.811.811 0 01-.823.822c-.411 0-.822-.411-.822-.822 0-.515.41-.823.822-.823s.823.308.823.823zm-4.73 6.17c-1.337 0-2.365-1.03-2.365-2.366 0-1.337 1.028-2.365 2.365-2.365 1.336 0 2.365 1.028 2.365 2.365 0 1.337-1.029 2.365-2.365 2.365zm0-6.068a3.686 3.686 0 00-3.702 3.702 3.686 3.686 0 003.702 3.702 3.686 3.686 0 003.701-3.702 3.686 3.686 0 00-3.701-3.702z"/></symbol><symbol viewBox="0 0 16 16" id="label" xmlns="http://www.w3.org/2000/svg"><path d="M5 4a1 1 0 100 2 1 1 0 000-2zm9.08 3.14L8.473 1.527A.667.667 0 008 1.333H2A.667.667 0 001.333 2v6a.667.667 0 00.194.473L7.14 14.08a2 2 0 002.827 0L14.08 10a2 2 0 000-2.827V7.14zm-.94 1.88l-4.12 4.113a.667.667 0 01-.94 0L2.667 7.727v-5.06h5.06L13.14 8.08a.668.668 0 010 .94z"/></symbol><symbol viewBox="0 0 7 12" id="lightning" xmlns="http://www.w3.org/2000/svg"><path d="M3.542 10.48V8.138c0-.224 0-.336-.067-.408a.245.245 0 00-.013-.013c-.072-.067-.184-.067-.408-.067-1.337 0-2.006 0-2.305-.421a1 1 0 01-.052-.082c-.257-.448.024-1.055.586-2.268L2.588 2.06c.374-.808.561-1.212.757-1.17.197.044.197.49.197 1.38v2.342c0 .224 0 .336.066.408l.014.013c.072.067.184.067.408.067 1.336 0 2.005 0 2.304.421.019.027.036.054.052.082.257.448-.024 1.055-.586 2.268L4.495 10.69c-.374.808-.56 1.212-.757 1.17-.196-.044-.196-.49-.196-1.38z"/></symbol><symbol viewBox="0 0 10 16" id="ok" xmlns="http://www.w3.org/2000/svg"><path d="M.147 8.587c-.408.804.056 1.188 1.114 1.844.9.556 2.144.759 2.942.84L1.056 14.3c-.916.878.559 2.286 1.474 1.427l2.478-2.39c.949.913 1.858 1.787 2.478 2.393.916.863 2.39-.534 1.484-1.427l-3.157-3.027c.808-.082 2.033-.297 2.922-.841 1.058-.66 1.522-1.043 1.12-1.847-.244-.456-.9-.837-1.773-.178 0 0-1.18.904-3.081.904-1.903 0-3.082-.904-3.082-.904-.872-.662-1.531-.278-1.772.178z"/><path d="M5 8.095c2.318 0 4.211-1.812 4.211-4.043C9.211 1.812 7.318 0 5 0S.787 1.812.787 4.052c0 2.23 1.893 4.043 4.212 4.043zm0-6.042c1.139 0 2.068.894 2.068 1.999 0 1.096-.93 1.99-2.069 1.99-1.139 0-2.068-.894-2.068-1.99-.001-1.106.928-2 2.068-2z"/></symbol><symbol viewBox="0 0 24 24" id="printer" xmlns="http://www.w3.org/2000/svg"><g clip-path="url(#nclip0_1689_1104)"><path d="M19 8H5c-1.655 0-3 1.345-3 3v6h4v4h12v-4h4v-6c0-1.655-1.345-3-3-3zm-3 11H8v-5h8v5zm3-7c-.555 0-1-.445-1-1 0-.555.445-1 1-1 .555 0 1 .445 1 1 0 .555-.445 1-1 1zm-1-9H6v4h12V3z"/></g><defs><clipPath id="nclip0_1689_1104"><path d="M0 0h24v24H0z"/></clipPath></defs></symbol><symbol viewBox="0 0 14 12" id="switch-nigth" xmlns="http://www.w3.org/2000/svg"><path d="M8.447 1.008C8.54 1.003 8.635 1 8.729 1 11.64 1 14 3.462 14 6.5S11.64 12 8.73 12c-1 0-1.934-.29-2.73-.794 2.78-.153 4.988-2.553 4.988-5.492 0-1.995-1.018-3.742-2.541-4.706zM2.975 5.425c.04.122.061.184.076.214a.5.5 0 00.898 0 2.44 2.44 0 00.076-.214c.033-.099.05-.148.067-.194a2 2 0 011.139-1.139c.046-.018.095-.034.194-.067a2.44 2.44 0 00.214-.076.5.5 0 000-.898 2.44 2.44 0 00-.214-.076 6.184 6.184 0 01-.194-.067 2 2 0 01-1.139-1.139c-.018-.046-.034-.095-.067-.194a2.44 2.44 0 00-.076-.214.5.5 0 00-.898 0 2.44 2.44 0 00-.076.214 4.37 4.37 0 01-.067.194 2 2 0 01-1.139 1.139c-.046.018-.095.034-.194.067a2.44 2.44 0 00-.214.076.5.5 0 000 .898c.03.015.092.035.214.076.099.033.148.05.194.067a2 2 0 011.139 1.139c.018.046.034.095.067.194z"/></symbol><symbol viewBox="0 0 20 17" id="tg" xmlns="http://www.w3.org/2000/svg"><path d="M.302 7.753c2.046-1.134 4.33-2.08 6.464-3.032 3.671-1.558 7.357-3.09 11.08-4.515.725-.243 2.026-.48 2.154.6-.07 1.529-.357 3.049-.555 4.569-.5 3.342-1.079 6.674-1.643 10.005-.194 1.11-1.576 1.684-2.46.974-2.124-1.444-4.265-2.874-6.362-4.351-.687-.703-.05-1.711.563-2.213 1.75-1.735 3.606-3.21 5.264-5.034.447-1.087-.874-.171-1.31.11-2.396 1.66-4.733 3.423-7.258 4.883-1.29.714-2.794.104-4.084-.295C1 8.972-.695 8.487.302 7.753z"/></symbol><symbol viewBox="0 0 14 11" id="tw" xmlns="http://www.w3.org/2000/svg"><path d="M12.35 1.74A5.92 5.92 0 0014 1.307a5.472 5.472 0 01-1.436 1.434c.009.117.009.234.009.36 0 3.67-2.891 7.899-8.17 7.899A8.351 8.351 0 010 9.756c.224.027.457.036.69.036a5.853 5.853 0 003.563-1.19c-1.25-.027-2.313-.83-2.677-1.93.177.036.355.045.541.045.261 0 .513-.036.756-.099C1.558 6.366.569 5.248.569 3.904v-.036c.392.207.83.334 1.306.343A2.735 2.735 0 01.597 1.902c0-.504.14-.982.392-1.397a8.272 8.272 0 005.913 2.903 2.85 2.85 0 01-.075-.63C6.827 1.244 8.115 0 9.7 0c.821 0 1.567.334 2.099.875a5.703 5.703 0 001.819-.677c-.215.65-.672 1.2-1.269 1.542z"/></symbol><symbol viewBox="0 0 18 9" id="vk" xmlns="http://www.w3.org/2000/svg"><path d="M17.182 8.965l-2.404.027s-.514.09-1.202-.324c-.904-.54-1.746-1.944-2.414-1.764-.668.189-.647 1.449-.647 1.449s0 .27-.144.414c-.164.162-.493.198-.493.198H8.81s-2.373.125-4.47-1.782C2.061 5.104.047.973.047.973S-.066.704.057.57C.202.425.582.416.582.416L3.15.398s.246.036.41.144c.155.099.237.27.237.27s.41.918.965 1.754c1.079 1.63 1.572 1.98 1.942 1.81.534-.253.37-2.304.37-2.304s.01-.738-.267-1.071C6.59.74 6.19.668 6.005.65c-.143-.018.093-.315.401-.441C6.868.01 7.69-.007 8.656.002c.75.009.965.045 1.263.108.884.189.586.909.586 2.645 0 .558-.113 1.341.349 1.602.195.108.678.018 1.88-1.773.575-.845.996-1.853.996-1.853s.093-.18.237-.252c.143-.081.349-.054.349-.054l2.712-.018s.811-.09.945.234c.133.342-.308 1.125-1.407 2.42-1.819 2.124-2.014 1.926-.514 3.15 1.438 1.17 1.736 1.746 1.787 1.809.596.873-.657.945-.657.945z"/></symbol><symbol viewBox="0 0 14 10" id="yt" xmlns="http://www.w3.org/2000/svg"><path d="M13.405 1.115c-.38-.675-.792-.8-1.631-.847-.838-.057-2.946-.08-4.772-.08-1.83 0-3.939.023-4.776.08-.837.047-1.25.17-1.634.847C.202 1.79 0 2.952 0 4.997v.007C0 7.041.201 8.212.592 8.88c.384.675.796.798 1.633.855.838.049 2.947.078 4.777.078 1.826 0 3.934-.03 4.773-.078.839-.056 1.251-.179 1.63-.854.396-.668.595-1.839.595-3.876v-.007c0-2.046-.2-3.208-.595-3.883zM5.25 7.625v-5.25L9.625 5 5.25 7.625z"/></symbol><symbol viewBox="0 0 20 20" id="zoom" xmlns="http://www.w3.org/2000/svg"><path d="M19.36 18.217l-4.76-4.95a8.05 8.05 0 001.895-5.192C16.495 3.623 12.873 0 8.42 0 3.968 0 .345 3.623.345 8.075c0 4.453 3.623 8.075 8.075 8.075a7.989 7.989 0 004.627-1.461l4.796 4.988c.2.208.47.323.759.323a1.054 1.054 0 00.759-1.783zM8.42 2.107a5.975 5.975 0 015.969 5.968 5.975 5.975 0 01-5.969 5.969 5.975 5.975 0 01-5.968-5.969A5.975 5.975 0 018.42 2.107z"/></symbol></svg>